<svg width="18" height="18" viewBox="0 0 18 18" fill="none" xmlns="http://www.w3.org/2000/svg">
<path d="M1 9C1 4.58172 4.58172 1 9 1V1C13.4183 1 17 4.58172 17 9V9C17 13.4183 13.4183 17 9 17V17C4.58172 17 1 13.4183 1 9V9Z" fill="#FFB054"/>
<path d="M7.44618 10.1111C7.74087 10.1111 8.02348 9.99405 8.23185 9.78567C8.44023 9.5773 8.55729 9.29469 8.55729 9C8.55729 8.38667 8.33507 8.11111 8.11285 7.66667C7.6364 6.71422 8.01329 5.86489 9.00174 5C9.22396 6.11111 9.89063 7.17778 10.7795 7.88889C11.6684 8.6 12.1128 9.44444 12.1128 10.3333C12.1128 10.7419 12.0324 11.1464 11.876 11.5239C11.7197 11.9014 11.4905 12.2443 11.2016 12.5332C10.9127 12.8221 10.5698 13.0513 10.1923 13.2076C9.81485 13.364 9.41029 13.4444 9.00174 13.4444C8.59318 13.4444 8.18862 13.364 7.81117 13.2076C7.43371 13.0513 7.09074 12.8221 6.80185 12.5332C6.51295 12.2443 6.28379 11.9014 6.12744 11.5239C5.9711 11.1464 5.89062 10.7419 5.89062 10.3333C5.89063 9.82089 6.08307 9.31378 6.33507 9C6.33507 9.29469 6.45213 9.5773 6.66051 9.78567C6.86888 9.99405 7.1515 10.1111 7.44618 10.1111Z" fill="#070B10"/>
</svg>
