<svg width="18" height="18" viewBox="0 0 18 18" fill="none" xmlns="http://www.w3.org/2000/svg">
<rect x="1" y="1" width="16" height="16" rx="8" fill="#411AC2"/>
<path d="M5.66623 10.9992C4.99957 11.5592 4.77734 13.2215 4.77734 13.2215C4.77734 13.2215 6.43957 12.9992 6.99957 12.3326C7.31512 11.9592 7.31068 11.3859 6.95957 11.0392C6.78681 10.8744 6.55925 10.7791 6.32056 10.7717C6.08186 10.7643 5.84884 10.8453 5.66623 10.9992Z" fill="white"/>
<path d="M8.99957 10.3326L7.66623 8.99924C7.90274 8.38566 8.20055 7.79749 8.55512 7.24369C9.07298 6.41568 9.79407 5.73393 10.6498 5.26328C11.5055 4.79263 12.4674 4.54874 13.444 4.5548C13.444 5.76369 13.0973 7.88813 10.7773 9.44369C10.216 9.79867 9.62039 10.0965 8.99957 10.3326Z" fill="white"/>
<path d="M7.66623 8.99924H5.44401C5.44401 8.99924 5.68845 7.65258 6.3329 7.22146C7.0529 6.74146 8.55512 7.22146 8.55512 7.22146" fill="white"/>
<path d="M8.99957 10.3326V12.5548C8.99957 12.5548 10.3462 12.3104 10.7773 11.6659C11.2573 10.9459 10.7773 9.44369 10.7773 9.44369" fill="white"/>
</svg>
