<svg width="40" height="40" viewBox="0 0 40 40" fill="none" xmlns="http://www.w3.org/2000/svg">
<rect width="40" height="40" fill="#123A30"/>
<path d="M4.00006 20.0001C6.10121 20.0001 8.18179 20.4139 10.123 21.218C12.0642 22.0221 13.828 23.2006 15.3138 24.6864C16.7995 26.1721 17.9781 27.9359 18.7821 29.8772C19.5862 31.8184 20.0001 33.8989 20.0001 36.0001L4.00006 36.0001L4.00006 20.0001Z" fill="#5555F6"/>
<path d="M36.0001 20.0001C33.8989 20.0001 31.8183 20.4139 29.8771 21.218C27.9359 22.0221 26.1721 23.2006 24.6864 24.6864C23.2006 26.1721 22.0221 27.9359 21.218 29.8772C20.4139 31.8184 20.0001 33.8989 20.0001 36.0001H36.0001L36.0001 20.0001Z" fill="#5555F6"/>
<path d="M4.00006 20.0001C6.10121 20.0001 8.18179 19.5862 10.123 18.7822C12.0642 17.9781 13.828 16.7995 15.3138 15.3138C16.7995 13.8281 17.9781 12.0642 18.7821 10.123C19.5862 8.18182 20.0001 6.10124 20.0001 4.00009L4.00006 4.00009L4.00006 20.0001Z" fill="#FF4D4D"/>
<path d="M36.0001 20.0001C33.8989 20.0001 31.8183 19.5863 29.8771 18.7822C27.9359 17.9781 26.1721 16.7996 24.6863 15.3138C23.2006 13.8281 22.0221 12.0643 21.218 10.123C20.4139 8.18183 20.0001 6.10126 20.0001 4.00011L36.0001 4.00011L36.0001 20.0001Z" fill="#FF4D4D"/>
</svg>
