<svg width="40" height="40" viewBox="0 0 40 40" fill="none" xmlns="http://www.w3.org/2000/svg">
<rect width="40" height="40" fill="#FF6680"/>
<path d="M3.99963 14.9998C3.99963 19.437 6.62689 23.2605 10.4107 24.9998H3.99963C3.99963 31.0749 8.9245 35.9998 14.9996 35.9998C19.4368 35.9998 23.2604 33.3725 24.9996 29.5887V35.9998C31.0748 35.9998 35.9996 31.0749 35.9996 24.9998C35.9996 20.5626 33.3724 16.739 29.5886 14.9998H35.9996C35.9996 8.92464 31.0748 3.99977 24.9996 3.99977C20.5624 3.99977 16.7389 6.62702 14.9996 10.4108V3.99977C8.9245 3.99977 3.99963 8.92464 3.99963 14.9998Z" fill="#2929A3"/>
<path d="M24.9998 19.9998C24.9998 22.7613 22.7612 24.9998 19.9998 24.9998C17.2383 24.9998 14.9998 22.7613 14.9998 19.9998C14.9998 17.2384 17.2383 14.9998 19.9998 14.9998C22.7612 14.9998 24.9998 17.2384 24.9998 19.9998Z" fill="#FF6680"/>
</svg>
