<svg width="40" height="40" viewBox="0 0 40 40" fill="none" xmlns="http://www.w3.org/2000/svg">
<rect width="40" height="40" fill="#FFDC99"/>
<path d="M36 20C36 28.8366 28.8366 36 20 36C11.1634 36 4 28.8366 4 20C4 11.1634 11.1634 4 20 4C28.8366 4 36 11.1634 36 20Z" fill="#1A6847"/>
<path d="M25.12 22.88C25.12 27.2983 21.5383 30.88 17.12 30.88C12.7017 30.88 9.12 27.2983 9.12 22.88C9.12 18.4617 12.7017 14.88 17.12 14.88C21.5383 14.88 25.12 18.4617 25.12 22.88Z" fill="#FFDC99"/>
<path d="M22.56 21.44C22.56 23.6491 20.7691 25.44 18.56 25.44C16.3509 25.44 14.56 23.6491 14.56 21.44C14.56 19.2309 16.3509 17.44 18.56 17.44C20.7691 17.44 22.56 19.2309 22.56 21.44Z" fill="#FF7733"/>
</svg>
