<svg width="40" height="40" viewBox="0 0 40 40" fill="none" xmlns="http://www.w3.org/2000/svg">
<rect width="40" height="40" fill="#F2FF66"/>
<path d="M20 4L34 12V28L20 36L6 28V12L20 4Z" fill="#542287"/>
<path d="M20 9C21.4078 13.5551 25.4448 16.6391 30 16.6393C26.3149 19.4547 24.5925 24.4448 26 29C22.3147 26.1849 17.6853 26.1849 14 29C15.4075 24.4448 13.6851 19.4547 10 16.6393C14.5552 16.6391 18.5922 13.5551 20 9Z" fill="#FF4785"/>
<path d="M18 16.5359C19.2376 15.8214 20.7624 15.8214 22 16.5359C23.2376 17.2504 24 18.5709 24 20C24 21.4291 23.2376 22.7496 22 23.4641C20.7624 24.1786 19.2376 24.1786 18 23.4641C16.7624 22.7496 16 21.4291 16 20C16 18.5709 16.7624 17.2504 18 16.5359Z" fill="#F2FF66"/>
</svg>
