<svg width="40" height="40" viewBox="0 0 40 40" fill="none" xmlns="http://www.w3.org/2000/svg">
<rect width="40" height="40" fill="#F5993D"/>
<path d="M4 20C4 11.1634 11.1634 4 20 4C28.8366 4 36 11.1634 36 20C36 28.8366 28.8366 36 20 36C11.1634 36 4 28.8366 4 20Z" fill="#28308A"/>
<path d="M19 31L23.4305 27.04C27.1435 23.7213 29 22.062 29 20C29 17.938 27.1435 16.2787 23.4305 12.96L19 9C25.7863 15.0706 25.7914 24.9217 19 31Z" fill="#F5993D"/>
<path d="M15 31L19.4305 27.04C23.1435 23.7213 25 22.062 25 20C25 17.938 23.1435 16.2787 19.4305 12.96L15 9C21.7863 15.0706 21.7914 24.9217 15 31Z" fill="#F5993D"/>
<path d="M11 31L15.4305 27.04C19.1435 23.7213 21 22.062 21 20C21 17.938 19.1435 16.2787 15.4305 12.96L11 9C17.7863 15.0706 17.7914 24.9217 11 31Z" fill="#F5993D"/>
</svg>
